# xmcd
#
# Track frame offsets:
# 150
# 12083
# 22381
# 33429
# 46375
# 58954
# 69656
# 80759
# 90085
# 100812
# 115855
# 127914
#
# Disc length: 1833 seconds
#
# Revision: 0
# Processed by: cddbd v1.5.2PL0 Copyright (c) Steve Scherf et al.
# Submitted via: Audion 3.0.2 (http://www.panic.com/audion/)
#
DISCID=9a07270c
DTITLE=The King Sisters - Imagination
DYEAR=1900
DGENRE=
TTITLE0=Deep Purple
TTITLE1=What's New
TTITLE2=That Old Feeling
TTITLE3=Early Autumn
TTITLE4=Take The 'A' Train
TTITLE5=You're My Thrill
TTITLE6=Imagination
TTITLE7=Four Brothers
TTITLE8=Don't Take Your Love From Me
TTITLE9=Sweet And Slow
TTITLE10=The Thrill Was New
TTITLE11=Easy To Love
EXTD=
EXTT0=
EXTT1=
EXTT2=
EXTT3=
EXTT4=
EXTT5=
EXTT6=
EXTT7=
EXTT8=
EXTT9=
EXTT10=
EXTT11=
PLAYORDER=
